<svg width="69" height="68" viewBox="0 0 69 68" fill="none" xmlns="http://www.w3.org/2000/svg">
<rect width="69" height="68" rx="10" fill="#F97B3A"/>
<g clip-path="url(#clip0_1_9)">
<path d="M47.0299 15.8906C47.1702 15.9465 47.3891 15.9622 47.3891 15.9622M44.5391 15.8906C44.5391 15.711 44.5069 15.5414 44.4613 15.391C44.3465 15.0131 43.8995 14.9274 43.5764 15.1561C43.0029 15.5622 42.1461 16.2351 41.689 16.9166C40.6151 18.5172 41.2439 20.5294 41.0902 21.6885C40.9226 22.9531 40.1653 24.0305 39.8448 25.6015C39.2452 28.5417 40.1801 30.946 39.8448 33.2842C39.6933 34.3414 38.8176 34.6491 38.5036 35.6702C37.2343 39.7978 38.5199 46.3775 39.5335 46.8364C40.8507 47.4329 43.1499 46.7648 43.6529 47.0273C44.1558 47.2898 44.6219 47.8963 45.3773 48.3635C46.0719 48.7929 46.8143 49.6041 46.3592 50.2193C45.9042 50.8344 41.0902 50.1166 39.3658 51.3168C39.026 51.5534 38.6366 51.8608 38.4557 52.2764C38.3829 52.4435 38.359 52.6059 38.3592 52.7479C38.3598 53.0497 38.6522 53.2265 38.9464 53.1546C39.1198 53.1123 39.329 53.0466 39.5574 52.9445C40.0203 52.7374 40.5619 52.2281 41.0424 52.2764C43.4134 52.515 45.9521 53.2308 47.7483 52.515C49.1646 51.9506 50.1673 50.3915 49.9039 49.2939C49.6281 48.1454 46.8594 46.7077 47.7483 46.4547C48.2513 46.3115 49.7602 46.741 50.6943 46.2876C51.6683 45.8148 51.5575 43.9913 51.5023 43.4546C51.4921 43.3552 51.4965 43.2574 51.5195 43.1601C51.6897 42.4393 52.417 39.1918 52.251 37.0063C52.0255 34.0387 50.814 31.7334 49.9039 29.753C49.2235 28.2727 49.9332 27.1768 49.5207 25.6015C49.184 24.3156 47.9591 23.4064 48.2274 22.452C48.5627 21.259 49.3282 20.4211 49.2572 18.8492C49.2096 17.7936 48.5971 16.4374 48.1549 15.5855C47.9317 15.1555 47.3531 15.0793 47.1485 15.5184C47.0936 15.6361 47.0506 15.7617 47.0299 15.8906H44.5391ZM44.5391 15.8906C45.4971 15.7952 46.0479 15.7475 47.0299 15.8906H44.5391ZM44.5391 15.8906C44.3894 15.9465 44.1558 15.9622 44.1558 15.9622L44.5391 15.8906Z" stroke="white" stroke-width="2" stroke-linecap="round" stroke-linejoin="round"/>
<path d="M5.89022 39.3846C5.76668 39.3846 5.66167 39.3415 5.57519 39.2554C5.48871 39.1692 5.44547 39.0646 5.44547 38.9415V26.9231C5.44547 26.7877 5.48871 26.6769 5.57519 26.5908C5.66167 26.5046 5.76668 26.4615 5.89022 26.4615H10.8567C11.8204 26.4615 12.6605 26.6154 13.377 26.9231C14.0936 27.2185 14.6495 27.6738 15.0449 28.2892C15.4402 28.8923 15.6379 29.6492 15.6379 30.56C15.6379 31.4831 15.4402 32.2461 15.0449 32.8492C14.6495 33.44 14.0936 33.8831 13.377 34.1785C12.6605 34.4738 11.8204 34.6215 10.8567 34.6215H8.09549V38.9415C8.09549 39.0646 8.05225 39.1692 7.96577 39.2554C7.89164 39.3415 7.78663 39.3846 7.65073 39.3846H5.89022ZM8.05843 32.5723H10.764C11.4806 32.5723 12.0304 32.4061 12.4134 32.0738C12.7964 31.7292 12.9878 31.2246 12.9878 30.56C12.9878 29.9446 12.8087 29.4523 12.4504 29.0831C12.0921 28.7015 11.53 28.5108 10.764 28.5108H8.05843V32.5723ZM21.4632 39.5692C20.0919 39.5692 19.0047 39.1754 18.2016 38.3877C17.3986 37.6 16.9662 36.48 16.9044 35.0277C16.8921 34.9046 16.8859 34.7508 16.8859 34.5661C16.8859 34.3692 16.8921 34.2154 16.9044 34.1046C16.9538 33.1815 17.1639 32.3815 17.5345 31.7046C17.9175 31.0277 18.4426 30.5108 19.1097 30.1538C19.7768 29.7846 20.5613 29.6 21.4632 29.6C22.4639 29.6 23.304 29.8092 23.9835 30.2277C24.663 30.6338 25.1757 31.2061 25.5216 31.9446C25.8676 32.6708 26.0405 33.5138 26.0405 34.4738V34.8615C26.0405 34.9846 25.9973 35.0892 25.9108 35.1754C25.8243 35.2615 25.7131 35.3046 25.5772 35.3046H19.4247C19.4247 35.3046 19.4247 35.3231 19.4247 35.36C19.4247 35.3969 19.4247 35.4277 19.4247 35.4523C19.4371 35.8831 19.5174 36.2831 19.6656 36.6523C19.8263 37.0092 20.0548 37.2985 20.3513 37.52C20.6602 37.7415 21.0246 37.8523 21.4447 37.8523C21.7906 37.8523 22.0809 37.8031 22.3157 37.7046C22.5504 37.5938 22.7419 37.4708 22.8902 37.3354C23.0384 37.2 23.1434 37.0892 23.2052 37.0031C23.3164 36.8554 23.4029 36.7692 23.4646 36.7446C23.5388 36.7077 23.6438 36.6892 23.7797 36.6892H25.3734C25.4969 36.6892 25.5958 36.7261 25.6699 36.8C25.7564 36.8738 25.7934 36.9661 25.7811 37.0769C25.7687 37.2738 25.6637 37.5138 25.4661 37.7969C25.2807 38.08 25.0089 38.3569 24.6507 38.6277C24.2924 38.8985 23.8414 39.1261 23.2978 39.3108C22.7666 39.4831 22.1551 39.5692 21.4632 39.5692ZM19.4247 33.7538H23.5202V33.6985C23.5202 33.2185 23.4399 32.8 23.2793 32.4431C23.1187 32.0861 22.884 31.8031 22.5751 31.5938C22.2663 31.3846 21.8956 31.28 21.4632 31.28C21.0308 31.28 20.6602 31.3846 20.3513 31.5938C20.0425 31.8031 19.8077 32.0861 19.6471 32.4431C19.4989 32.8 19.4247 33.2185 19.4247 33.6985V33.7538ZM32.3263 39.3846C31.585 39.3846 30.9611 39.2554 30.4546 38.9969C29.9481 38.7385 29.5713 38.3569 29.3242 37.8523C29.0771 37.3354 28.9536 36.6954 28.9536 35.9323V31.7415H27.4896C27.366 31.7415 27.261 31.6985 27.1745 31.6123C27.088 31.5261 27.0448 31.4215 27.0448 31.2985V30.2277C27.0448 30.1046 27.088 30 27.1745 29.9138C27.261 29.8277 27.366 29.7846 27.4896 29.7846H28.9536V26.72C28.9536 26.5969 28.9906 26.4923 29.0647 26.4061C29.1512 26.32 29.2624 26.2769 29.3983 26.2769H30.8994C31.0229 26.2769 31.1279 26.32 31.2144 26.4061C31.3009 26.4923 31.3441 26.5969 31.3441 26.72V29.7846H33.6606C33.7841 29.7846 33.8891 29.8277 33.9756 29.9138C34.0621 30 34.1053 30.1046 34.1053 30.2277V31.2985C34.1053 31.4215 34.0621 31.5261 33.9756 31.6123C33.8891 31.6985 33.7841 31.7415 33.6606 31.7415H31.3441V35.7477C31.3441 36.2523 31.4306 36.6461 31.6036 36.9292C31.7889 37.2123 32.1039 37.3538 32.5487 37.3538H33.8274C33.9509 37.3538 34.0559 37.3969 34.1424 37.4831C34.2289 37.5692 34.2721 37.6738 34.2721 37.7969V38.9415C34.2721 39.0646 34.2289 39.1692 34.1424 39.2554C34.0559 39.3415 33.9509 39.3846 33.8274 39.3846H32.3263Z" fill="white"/>
<path d="M59.8359 38.0308C59.0946 38.0308 58.4583 37.9446 57.9271 37.7723C57.4082 37.6 56.982 37.3846 56.6484 37.1262C56.3148 36.8677 56.0678 36.6092 55.9071 36.3508C55.7465 36.0923 55.6601 35.8769 55.6477 35.7046C55.6353 35.5692 55.6724 35.4646 55.7589 35.3908C55.8577 35.3046 55.9627 35.2615 56.0739 35.2615H57.5379C57.5873 35.2615 57.6306 35.2677 57.6677 35.28C57.7047 35.2923 57.7541 35.3292 57.8159 35.3908C57.9765 35.5262 58.1433 35.6677 58.3163 35.8154C58.5016 35.9631 58.7178 36.0923 58.9649 36.2031C59.212 36.3015 59.5208 36.3508 59.8915 36.3508C60.3733 36.3508 60.7748 36.2585 61.096 36.0738C61.4296 35.8769 61.5964 35.6 61.5964 35.2431C61.5964 34.9846 61.5222 34.7754 61.374 34.6154C61.2381 34.4554 60.9786 34.3138 60.5957 34.1908C60.2127 34.0554 59.6691 33.9138 58.9649 33.7662C58.273 33.6062 57.6985 33.4031 57.2414 33.1569C56.7843 32.9108 56.4446 32.6031 56.2222 32.2338C55.9998 31.8646 55.8886 31.4338 55.8886 30.9415C55.8886 30.4615 56.0307 30.0062 56.3148 29.5754C56.6113 29.1323 57.0438 28.7692 57.6121 28.4862C58.1927 28.2031 58.9093 28.0615 59.7617 28.0615C60.4289 28.0615 61.0095 28.1477 61.5037 28.32C61.9979 28.48 62.4056 28.6831 62.7268 28.9292C63.0604 29.1754 63.3136 29.4277 63.4866 29.6862C63.6596 29.9323 63.7522 30.1477 63.7646 30.3323C63.7769 30.4677 63.7399 30.5785 63.6534 30.6646C63.5669 30.7385 63.4681 30.7754 63.3569 30.7754H61.9855C61.9238 30.7754 61.8682 30.7631 61.8187 30.7385C61.7693 30.7138 61.7199 30.6831 61.6705 30.6462C61.5346 30.5231 61.3863 30.3938 61.2257 30.2585C61.0651 30.1231 60.8675 30.0062 60.6327 29.9077C60.4103 29.7969 60.1138 29.7415 59.7432 29.7415C59.2737 29.7415 58.9155 29.8462 58.6684 30.0554C58.4213 30.2523 58.2977 30.5046 58.2977 30.8123C58.2977 31.0215 58.3533 31.2062 58.4645 31.3662C58.5881 31.5138 58.829 31.6554 59.1872 31.7908C59.5455 31.9262 60.0891 32.0677 60.818 32.2154C61.6458 32.3631 62.3006 32.5846 62.7824 32.88C63.2766 33.1631 63.6225 33.4954 63.8202 33.8769C64.0302 34.2462 64.1352 34.6585 64.1352 35.1138C64.1352 35.6677 63.9684 36.1662 63.6348 36.6092C63.3136 37.0523 62.8318 37.4031 62.1894 37.6615C61.5593 37.9077 60.7748 38.0308 59.8359 38.0308Z" fill="white"/>
</g>
<defs>
<clipPath id="clip0_1_9">
<rect x="4" y="14" width="61" height="40" rx="10" fill="white"/>
</clipPath>
</defs>
</svg>
