<svg width="79" height="52" viewBox="0 0 79 52" fill="none" xmlns="http://www.w3.org/2000/svg">
<path d="M52.5014 2.45782C52.5014 2.22429 52.4598 2.00377 52.4007 1.8083C52.252 1.317 51.6731 1.20567 51.2547 1.50299C50.5119 2.03082 49.4024 2.9056 48.8103 3.79156C47.4196 5.87243 48.2339 8.48827 48.0349 9.99504C47.8178 11.639 46.837 13.0396 46.422 15.0819C45.6454 18.9042 46.8562 22.0298 46.422 25.0695C46.2257 26.4438 45.0917 26.8438 44.685 28.1712C43.0411 33.5372 44.7061 42.0907 46.0188 42.6873C47.7247 43.4628 50.7024 42.5943 51.3538 42.9355C52.0051 43.2767 52.6087 44.0652 53.587 44.6725C54.4865 45.2308 55.448 46.2854 54.8587 47.0851C54.2694 47.8847 48.0349 46.9516 45.8016 48.5119C45.3615 48.8194 44.8573 49.2191 44.623 49.7593C44.5287 49.9766 44.4977 50.1877 44.498 50.3723C44.4988 50.7646 44.8774 50.9944 45.2585 50.901C45.483 50.846 45.754 50.7606 46.0498 50.6278C46.6493 50.3586 47.3507 49.6965 47.9729 49.7593C51.0436 50.0695 54.3314 51 56.6577 50.0695C58.4919 49.3358 59.7905 47.3089 59.4493 45.8821C59.0922 44.389 55.5065 42.52 56.6577 42.1911C57.3091 42.005 59.2632 42.5633 60.4729 41.9739C61.7344 41.3593 61.5909 38.9887 61.5194 38.291C61.5062 38.1618 61.5119 38.0346 61.5417 37.9081C61.7621 36.9711 62.704 32.7494 62.489 29.9082C62.197 26.0503 60.628 23.0534 59.4493 20.4789C58.5682 18.5545 59.4872 17.1299 58.953 15.0819C58.517 13.4103 56.9307 12.2283 57.2781 10.9876C57.7123 9.43672 58.7037 8.3474 58.6118 6.30397C58.5501 4.93175 57.7569 3.16866 57.1842 2.06118C56.8951 1.50217 56.1458 1.40311 55.8808 1.97396C55.8098 2.12693 55.754 2.2902 55.7272 2.45782M52.5014 2.45782C53.7421 2.33375 54.4555 2.27171 55.7272 2.45782M52.5014 2.45782C52.3076 2.53049 52.0051 2.55087 52.0051 2.55087M55.7272 2.45782C55.9089 2.53049 56.1925 2.55087 56.1925 2.55087" stroke="white" stroke-width="2" stroke-linecap="round" stroke-linejoin="round"/>
<path d="M2.448 33C2.288 33 2.152 32.944 2.04 32.832C1.928 32.72 1.872 32.584 1.872 32.424V16.8C1.872 16.624 1.928 16.48 2.04 16.368C2.152 16.256 2.288 16.2 2.448 16.2H8.88C10.128 16.2 11.216 16.4 12.144 16.8C13.072 17.184 13.792 17.776 14.304 18.576C14.816 19.36 15.072 20.344 15.072 21.528C15.072 22.728 14.816 23.72 14.304 24.504C13.792 25.272 13.072 25.848 12.144 26.232C11.216 26.616 10.128 26.808 8.88 26.808H5.304V32.424C5.304 32.584 5.248 32.72 5.136 32.832C5.04 32.944 4.904 33 4.728 33H2.448ZM5.256 24.144H8.76C9.688 24.144 10.4 23.928 10.896 23.496C11.392 23.048 11.64 22.392 11.64 21.528C11.64 20.728 11.408 20.088 10.944 19.608C10.48 19.112 9.752 18.864 8.76 18.864H5.256V24.144ZM22.6163 33.24C20.8403 33.24 19.4323 32.728 18.3923 31.704C17.3523 30.68 16.7923 29.224 16.7123 27.336C16.6963 27.176 16.6883 26.976 16.6883 26.736C16.6883 26.48 16.6963 26.28 16.7123 26.136C16.7763 24.936 17.0483 23.896 17.5283 23.016C18.0243 22.136 18.7043 21.464 19.5683 21C20.4323 20.52 21.4483 20.28 22.6163 20.28C23.9123 20.28 25.0003 20.552 25.8803 21.096C26.7603 21.624 27.4243 22.368 27.8723 23.328C28.3203 24.272 28.5443 25.368 28.5443 26.616V27.12C28.5443 27.28 28.4883 27.416 28.3763 27.528C28.2643 27.64 28.1203 27.696 27.9443 27.696H19.9763C19.9763 27.696 19.9763 27.72 19.9763 27.768C19.9763 27.816 19.9763 27.856 19.9763 27.888C19.9923 28.448 20.0963 28.968 20.2883 29.448C20.4963 29.912 20.7923 30.288 21.1763 30.576C21.5763 30.864 22.0483 31.008 22.5923 31.008C23.0403 31.008 23.4163 30.944 23.7203 30.816C24.0243 30.672 24.2723 30.512 24.4643 30.336C24.6563 30.16 24.7923 30.016 24.8723 29.904C25.0163 29.712 25.1283 29.6 25.2083 29.568C25.3043 29.52 25.4403 29.496 25.6163 29.496H27.6803C27.8403 29.496 27.9683 29.544 28.0643 29.64C28.1763 29.736 28.2243 29.856 28.2083 30C28.1923 30.256 28.0563 30.568 27.8003 30.936C27.5603 31.304 27.2083 31.664 26.7443 32.016C26.2803 32.368 25.6963 32.664 24.9923 32.904C24.3043 33.128 23.5123 33.24 22.6163 33.24ZM19.9763 25.68H25.2803V25.608C25.2803 24.984 25.1763 24.44 24.9683 23.976C24.7603 23.512 24.4563 23.144 24.0563 22.872C23.6563 22.6 23.1763 22.464 22.6163 22.464C22.0563 22.464 21.5763 22.6 21.1763 22.872C20.7763 23.144 20.4723 23.512 20.2643 23.976C20.0723 24.44 19.9763 24.984 19.9763 25.608V25.68ZM36.6849 33C35.7249 33 34.9169 32.832 34.2609 32.496C33.6049 32.16 33.1169 31.664 32.7969 31.008C32.4769 30.336 32.3169 29.504 32.3169 28.512V23.064H30.4209C30.2609 23.064 30.1249 23.008 30.0129 22.896C29.9009 22.784 29.8449 22.648 29.8449 22.488V21.096C29.8449 20.936 29.9009 20.8 30.0129 20.688C30.1249 20.576 30.2609 20.52 30.4209 20.52H32.3169V16.536C32.3169 16.376 32.3649 16.24 32.4609 16.128C32.5729 16.016 32.7169 15.96 32.8929 15.96H34.8369C34.9969 15.96 35.1329 16.016 35.2449 16.128C35.3569 16.24 35.4129 16.376 35.4129 16.536V20.52H38.4129C38.5729 20.52 38.7089 20.576 38.8209 20.688C38.9329 20.8 38.9889 20.936 38.9889 21.096V22.488C38.9889 22.648 38.9329 22.784 38.8209 22.896C38.7089 23.008 38.5729 23.064 38.4129 23.064H35.4129V28.272C35.4129 28.928 35.5249 29.44 35.7489 29.808C35.9889 30.176 36.3969 30.36 36.9729 30.36H38.6289C38.7889 30.36 38.9249 30.416 39.0369 30.528C39.1489 30.64 39.2049 30.776 39.2049 30.936V32.424C39.2049 32.584 39.1489 32.72 39.0369 32.832C38.9249 32.944 38.7889 33 38.6289 33H36.6849Z" fill="white"/>
<path d="M72.312 31.24C71.352 31.24 70.528 31.128 69.84 30.904C69.168 30.68 68.616 30.4 68.184 30.064C67.752 29.728 67.432 29.392 67.224 29.056C67.016 28.72 66.904 28.44 66.888 28.216C66.872 28.04 66.92 27.904 67.032 27.808C67.16 27.696 67.296 27.64 67.44 27.64H69.336C69.4 27.64 69.456 27.648 69.504 27.664C69.552 27.68 69.616 27.728 69.696 27.808C69.904 27.984 70.12 28.168 70.344 28.36C70.584 28.552 70.864 28.72 71.184 28.864C71.504 28.992 71.904 29.056 72.384 29.056C73.008 29.056 73.528 28.936 73.944 28.696C74.376 28.44 74.592 28.08 74.592 27.616C74.592 27.28 74.496 27.008 74.304 26.8C74.128 26.592 73.792 26.408 73.296 26.248C72.8 26.072 72.096 25.888 71.184 25.696C70.288 25.488 69.544 25.224 68.952 24.904C68.36 24.584 67.92 24.184 67.632 23.704C67.344 23.224 67.2 22.664 67.2 22.024C67.2 21.4 67.384 20.808 67.752 20.248C68.136 19.672 68.696 19.2 69.432 18.832C70.184 18.464 71.112 18.28 72.216 18.28C73.08 18.28 73.832 18.392 74.472 18.616C75.112 18.824 75.64 19.088 76.056 19.408C76.488 19.728 76.816 20.056 77.04 20.392C77.264 20.712 77.384 20.992 77.4 21.232C77.416 21.408 77.368 21.552 77.256 21.664C77.144 21.76 77.016 21.808 76.872 21.808H75.096C75.016 21.808 74.944 21.792 74.88 21.76C74.816 21.728 74.752 21.688 74.688 21.64C74.512 21.48 74.32 21.312 74.112 21.136C73.904 20.96 73.648 20.808 73.344 20.68C73.056 20.536 72.672 20.464 72.192 20.464C71.584 20.464 71.12 20.6 70.8 20.872C70.48 21.128 70.32 21.456 70.32 21.856C70.32 22.128 70.392 22.368 70.536 22.576C70.696 22.768 71.008 22.952 71.472 23.128C71.936 23.304 72.64 23.488 73.584 23.68C74.656 23.872 75.504 24.16 76.128 24.544C76.768 24.912 77.216 25.344 77.472 25.84C77.744 26.32 77.88 26.856 77.88 27.448C77.88 28.168 77.664 28.816 77.232 29.392C76.816 29.968 76.192 30.424 75.36 30.76C74.544 31.08 73.528 31.24 72.312 31.24Z" fill="white"/>
</svg>
